<mxfile host="app.diagrams.net" modified="2022-04-20T12:47:11.286Z" agent="5.0 (Windows NT 10.0; Win64; x64) AppleWebKit/537.36 (KHTML, like Gecko) Chrome/100.0.4896.127 Safari/537.36 Edg/100.0.1185.44" etag="R4_58efOQwXgfFHdtvax" version="17.4.5" type="github">
  <diagram id="ZGTF28jpZTgaZzWINxTA" name="Page-1">
    <mxGraphModel dx="1550" dy="834" grid="1" gridSize="10" guides="1" tooltips="1" connect="1" arrows="1" fold="1" page="1" pageScale="1" pageWidth="827" pageHeight="1169" math="0" shadow="0">
      <root>
        <mxCell id="0" />
        <mxCell id="1" parent="0" />
        <mxCell id="4H0AxzdFxth0Z1vacrah-1" value="" style="aspect=fixed;html=1;points=[];align=center;image;fontSize=12;image=img/lib/azure2/identity/Users.svg;" vertex="1" parent="1">
          <mxGeometry x="180" y="210" width="64" height="70" as="geometry" />
        </mxCell>
        <mxCell id="4H0AxzdFxth0Z1vacrah-2" value="" style="aspect=fixed;html=1;points=[];align=center;image;fontSize=12;image=img/lib/azure2/identity/Users.svg;" vertex="1" parent="1">
          <mxGeometry x="180" y="310" width="64" height="70" as="geometry" />
        </mxCell>
        <mxCell id="4H0AxzdFxth0Z1vacrah-3" value="" style="aspect=fixed;html=1;points=[];align=center;image;fontSize=12;image=img/lib/azure2/identity/Users.svg;" vertex="1" parent="1">
          <mxGeometry x="180" y="410" width="64" height="70" as="geometry" />
        </mxCell>
      </root>
    </mxGraphModel>
  </diagram>
</mxfile>
